<svg width="399" height="180" viewBox="0 0 399 180" fill="none" xmlns="http://www.w3.org/2000/svg">
<rect x="0.5" y="0.5" width="398" height="179" rx="3.5" stroke="black" stroke-opacity="0.5"/>
<g opacity="0.5">
<line y1="89.5" x2="399" y2="89.5" stroke="black"/>
</g>
<g clip-path="url(#clip0_261_4869)">
<path d="M27.6666 60.6667C29.5075 60.6667 30.9999 59.1743 30.9999 57.3333C30.9999 55.4924 29.5075 54 27.6666 54C25.8256 54 24.3333 55.4924 24.3333 57.3333C24.3333 59.1743 25.8256 60.6667 27.6666 60.6667Z" stroke="black" stroke-width="2" stroke-linecap="round" stroke-linejoin="round"/>
<path d="M44.3333 60.6667C46.1743 60.6667 47.6667 59.1743 47.6667 57.3333C47.6667 55.4924 46.1743 54 44.3333 54C42.4924 54 41 55.4924 41 57.3333C41 59.1743 42.4924 60.6667 44.3333 60.6667Z" stroke="black" stroke-width="2" stroke-linecap="round" stroke-linejoin="round"/>
<path d="M24.3333 57.3335H22.9999C21.8953 57.3335 20.9999 56.4381 20.9999 55.3335V50.6668M19.3333 37.3335H35.6666C36.7712 37.3335 37.6666 38.2289 37.6666 39.3335V57.3335M30.9999 57.3335H40.9999M47.6666 57.3335H48.9999C50.1045 57.3335 50.9999 56.4381 50.9999 55.3335V47.3335M50.9999 47.3335H37.6666M50.9999 47.3335L46.5825 39.9712C46.2211 39.3688 45.5701 39.0002 44.8675 39.0002H37.6666" stroke="black" stroke-width="2" stroke-linecap="round" stroke-linejoin="round"/>
<path d="M24 57H22.6667C21.5621 57 20.6667 56.1046 20.6667 55V50.3333M19 37H35.3333C36.4379 37 37.3333 37.8954 37.3333 39V57M31 57H40.6667M48 57H48.6667C49.7712 57 50.6667 56.1046 50.6667 55V47M50.6667 47H37.3333M50.6667 47L46.2493 39.6377C45.8878 39.0353 45.2368 38.6667 44.5343 38.6667H37.3333" stroke="black" stroke-width="2" stroke-linecap="round" stroke-linejoin="round"/>
<path d="M21 40.8182H27.6667" stroke="black" stroke-width="2" stroke-linecap="round" stroke-linejoin="round"/>
<path d="M17.8181 44.4545H24.4848" stroke="black" stroke-width="2" stroke-linecap="round" stroke-linejoin="round"/>
<path d="M21 48.0909H27.6667" stroke="black" stroke-width="2" stroke-linecap="round" stroke-linejoin="round"/>
</g>
<path d="M79.744 30.88V32.368H75.024V35.648H78.704V37.136H75.024V42H73.2V30.88H79.744ZM83.2584 34.464C83.525 34.016 83.877 33.6693 84.3144 33.424C84.7624 33.168 85.2904 33.04 85.8984 33.04V34.928H85.4344C84.7197 34.928 84.1757 35.1093 83.8024 35.472C83.4397 35.8347 83.2584 36.464 83.2584 37.36V42H81.4344V33.184H83.2584V34.464ZM95.655 37.376C95.655 37.7067 95.6337 38.0053 95.591 38.272H88.855C88.9083 38.976 89.1697 39.5413 89.639 39.968C90.1083 40.3947 90.6843 40.608 91.367 40.608C92.3483 40.608 93.0417 40.1973 93.447 39.376H95.415C95.1483 40.1867 94.663 40.8533 93.959 41.376C93.2657 41.888 92.4017 42.144 91.367 42.144C90.5243 42.144 89.767 41.9573 89.095 41.584C88.4337 41.2 87.911 40.6667 87.527 39.984C87.1537 39.2907 86.967 38.4907 86.967 37.584C86.967 36.6773 87.1483 35.8827 87.511 35.2C87.8843 34.5067 88.4017 33.9733 89.063 33.6C89.735 33.2267 90.503 33.04 91.367 33.04C92.199 33.04 92.9403 33.2213 93.591 33.584C94.2417 33.9467 94.7483 34.4587 95.111 35.12C95.4737 35.7707 95.655 36.5227 95.655 37.376ZM93.751 36.8C93.7403 36.128 93.5003 35.5893 93.031 35.184C92.5617 34.7787 91.9803 34.576 91.287 34.576C90.6577 34.576 90.119 34.7787 89.671 35.184C89.223 35.5787 88.9563 36.1173 88.871 36.8H93.751ZM105.53 37.376C105.53 37.7067 105.509 38.0053 105.466 38.272H98.73C98.7833 38.976 99.0447 39.5413 99.514 39.968C99.9833 40.3947 100.559 40.608 101.242 40.608C102.223 40.608 102.917 40.1973 103.322 39.376H105.29C105.023 40.1867 104.538 40.8533 103.834 41.376C103.141 41.888 102.277 42.144 101.242 42.144C100.399 42.144 99.642 41.9573 98.97 41.584C98.3087 41.2 97.786 40.6667 97.402 39.984C97.0287 39.2907 96.842 38.4907 96.842 37.584C96.842 36.6773 97.0233 35.8827 97.386 35.2C97.7593 34.5067 98.2767 33.9733 98.938 33.6C99.61 33.2267 100.378 33.04 101.242 33.04C102.074 33.04 102.815 33.2213 103.466 33.584C104.117 33.9467 104.623 34.4587 104.986 35.12C105.349 35.7707 105.53 36.5227 105.53 37.376ZM103.626 36.8C103.615 36.128 103.375 35.5893 102.906 35.184C102.437 34.7787 101.855 34.576 101.162 34.576C100.533 34.576 99.994 34.7787 99.546 35.184C99.098 35.5787 98.8313 36.1173 98.746 36.8H103.626ZM115.113 30.88C116.297 30.88 117.332 31.1093 118.217 31.568C119.113 32.016 119.801 32.6667 120.281 33.52C120.772 34.3627 121.017 35.3493 121.017 36.48C121.017 37.6107 120.772 38.592 120.281 39.424C119.801 40.256 119.113 40.896 118.217 41.344C117.332 41.7813 116.297 42 115.113 42H111.481V30.88H115.113ZM115.113 40.512C116.415 40.512 117.412 40.16 118.105 39.456C118.799 38.752 119.145 37.76 119.145 36.48C119.145 35.1893 118.799 34.1813 118.105 33.456C117.412 32.7307 116.415 32.368 115.113 32.368H113.305V40.512H115.113ZM130.905 37.376C130.905 37.7067 130.884 38.0053 130.841 38.272H124.105C124.158 38.976 124.42 39.5413 124.889 39.968C125.358 40.3947 125.934 40.608 126.617 40.608C127.598 40.608 128.292 40.1973 128.697 39.376H130.665C130.398 40.1867 129.913 40.8533 129.209 41.376C128.516 41.888 127.652 42.144 126.617 42.144C125.774 42.144 125.017 41.9573 124.345 41.584C123.684 41.2 123.161 40.6667 122.777 39.984C122.404 39.2907 122.217 38.4907 122.217 37.584C122.217 36.6773 122.398 35.8827 122.761 35.2C123.134 34.5067 123.652 33.9733 124.313 33.6C124.985 33.2267 125.753 33.04 126.617 33.04C127.449 33.04 128.19 33.2213 128.841 33.584C129.492 33.9467 129.998 34.4587 130.361 35.12C130.724 35.7707 130.905 36.5227 130.905 37.376ZM129.001 36.8C128.99 36.128 128.75 35.5893 128.281 35.184C127.812 34.7787 127.23 34.576 126.537 34.576C125.908 34.576 125.369 34.7787 124.921 35.184C124.473 35.5787 124.206 36.1173 124.121 36.8H129.001ZM134.524 30.16V42H132.7V30.16H134.524ZM137.847 32.016C137.516 32.016 137.239 31.904 137.015 31.68C136.791 31.456 136.679 31.1787 136.679 30.848C136.679 30.5173 136.791 30.24 137.015 30.016C137.239 29.792 137.516 29.68 137.847 29.68C138.167 29.68 138.439 29.792 138.663 30.016C138.887 30.24 138.999 30.5173 138.999 30.848C138.999 31.1787 138.887 31.456 138.663 31.68C138.439 31.904 138.167 32.016 137.847 32.016ZM138.743 33.184V42H136.919V33.184H138.743ZM144.546 40.368L147.042 33.184H148.977L145.618 42H143.442L140.098 33.184H142.049L144.546 40.368ZM158.436 37.376C158.436 37.7067 158.415 38.0053 158.372 38.272H151.636C151.69 38.976 151.951 39.5413 152.42 39.968C152.89 40.3947 153.466 40.608 154.148 40.608C155.13 40.608 155.823 40.1973 156.228 39.376H158.196C157.93 40.1867 157.444 40.8533 156.74 41.376C156.047 41.888 155.183 42.144 154.148 42.144C153.306 42.144 152.548 41.9573 151.876 41.584C151.215 41.2 150.692 40.6667 150.308 39.984C149.935 39.2907 149.748 38.4907 149.748 37.584C149.748 36.6773 149.93 35.8827 150.292 35.2C150.666 34.5067 151.183 33.9733 151.844 33.6C152.516 33.2267 153.284 33.04 154.148 33.04C154.98 33.04 155.722 33.2213 156.372 33.584C157.023 33.9467 157.53 34.4587 157.892 35.12C158.255 35.7707 158.436 36.5227 158.436 37.376ZM156.532 36.8C156.522 36.128 156.282 35.5893 155.812 35.184C155.343 34.7787 154.762 34.576 154.068 34.576C153.439 34.576 152.9 34.7787 152.452 35.184C152.004 35.5787 151.738 36.1173 151.652 36.8H156.532ZM162.055 34.464C162.322 34.016 162.674 33.6693 163.111 33.424C163.559 33.168 164.087 33.04 164.695 33.04V34.928H164.231C163.517 34.928 162.973 35.1093 162.599 35.472C162.237 35.8347 162.055 36.464 162.055 37.36V42H160.231V33.184H162.055V34.464ZM174.308 33.184L168.9 46.144H167.012L168.804 41.856L165.332 33.184H167.364L169.844 39.904L172.42 33.184H174.308Z" fill="black"/>
<path d="M74.268 61.764V64.212H77.148V65.328H74.268V67.884H77.508V69H72.9V60.648H77.508V61.764H74.268ZM82.529 62.28C83.049 62.28 83.513 62.388 83.921 62.604C84.337 62.82 84.661 63.14 84.893 63.564C85.125 63.988 85.241 64.5 85.241 65.1V69H83.885V65.304C83.885 64.712 83.737 64.26 83.441 63.948C83.145 63.628 82.741 63.468 82.229 63.468C81.717 63.468 81.309 63.628 81.005 63.948C80.709 64.26 80.561 64.712 80.561 65.304V69H79.193V62.388H80.561V63.144C80.785 62.872 81.069 62.66 81.413 62.508C81.765 62.356 82.137 62.28 82.529 62.28ZM88.5819 63.504V67.164C88.5819 67.412 88.6379 67.592 88.7499 67.704C88.8699 67.808 89.0699 67.86 89.3499 67.86H90.1899V69H89.1099C88.4939 69 88.0219 68.856 87.6939 68.568C87.3659 68.28 87.2019 67.812 87.2019 67.164V63.504H86.4219V62.388H87.2019V60.744H88.5819V62.388H90.1899V63.504H88.5819ZM97.5108 65.532C97.5108 65.78 97.4948 66.004 97.4628 66.204H92.4108C92.4508 66.732 92.6468 67.156 92.9988 67.476C93.3508 67.796 93.7828 67.956 94.2948 67.956C95.0308 67.956 95.5508 67.648 95.8548 67.032H97.3308C97.1308 67.64 96.7668 68.14 96.2388 68.532C95.7188 68.916 95.0708 69.108 94.2948 69.108C93.6628 69.108 93.0948 68.968 92.5908 68.688C92.0948 68.4 91.7028 68 91.4148 67.488C91.1348 66.968 90.9948 66.368 90.9948 65.688C90.9948 65.008 91.1308 64.412 91.4028 63.9C91.6828 63.38 92.0708 62.98 92.5668 62.7C93.0708 62.42 93.6468 62.28 94.2948 62.28C94.9188 62.28 95.4748 62.416 95.9628 62.688C96.4508 62.96 96.8308 63.344 97.1028 63.84C97.3748 64.328 97.5108 64.892 97.5108 65.532ZM96.0828 65.1C96.0748 64.596 95.8948 64.192 95.5428 63.888C95.1908 63.584 94.7548 63.432 94.2348 63.432C93.7628 63.432 93.3588 63.584 93.0228 63.888C92.6868 64.184 92.4868 64.588 92.4228 65.1H96.0828ZM100.225 63.348C100.425 63.012 100.689 62.752 101.017 62.568C101.353 62.376 101.749 62.28 102.205 62.28V63.696H101.857C101.321 63.696 100.913 63.832 100.633 64.104C100.361 64.376 100.225 64.848 100.225 65.52V69H98.857V62.388H100.225V63.348ZM112.532 62.388L108.476 72.108H107.06L108.404 68.892L105.8 62.388H107.324L109.184 67.428L111.116 62.388H112.532ZM116.432 69.108C115.808 69.108 115.244 68.968 114.74 68.688C114.236 68.4 113.84 68 113.552 67.488C113.264 66.968 113.12 66.368 113.12 65.688C113.12 65.016 113.268 64.42 113.564 63.9C113.86 63.38 114.264 62.98 114.776 62.7C115.288 62.42 115.86 62.28 116.492 62.28C117.124 62.28 117.696 62.42 118.208 62.7C118.72 62.98 119.124 63.38 119.42 63.9C119.716 64.42 119.864 65.016 119.864 65.688C119.864 66.36 119.712 66.956 119.408 67.476C119.104 67.996 118.688 68.4 118.16 68.688C117.64 68.968 117.064 69.108 116.432 69.108ZM116.432 67.92C116.784 67.92 117.112 67.836 117.416 67.668C117.728 67.5 117.98 67.248 118.172 66.912C118.364 66.576 118.46 66.168 118.46 65.688C118.46 65.208 118.368 64.804 118.184 64.476C118 64.14 117.756 63.888 117.452 63.72C117.148 63.552 116.82 63.468 116.468 63.468C116.116 63.468 115.788 63.552 115.484 63.72C115.188 63.888 114.952 64.14 114.776 64.476C114.6 64.804 114.512 65.208 114.512 65.688C114.512 66.4 114.692 66.952 115.052 67.344C115.42 67.728 115.88 67.92 116.432 67.92ZM127.204 62.388V69H125.836V68.22C125.62 68.492 125.336 68.708 124.984 68.868C124.64 69.02 124.272 69.096 123.88 69.096C123.36 69.096 122.892 68.988 122.476 68.772C122.068 68.556 121.744 68.236 121.504 67.812C121.272 67.388 121.156 66.876 121.156 66.276V62.388H122.512V66.072C122.512 66.664 122.66 67.12 122.956 67.44C123.252 67.752 123.656 67.908 124.168 67.908C124.68 67.908 125.084 67.752 125.38 67.44C125.684 67.12 125.836 66.664 125.836 66.072V62.388H127.204ZM130.377 63.348C130.577 63.012 130.841 62.752 131.169 62.568C131.505 62.376 131.901 62.28 132.357 62.28V63.696H132.009C131.473 63.696 131.065 63.832 130.785 64.104C130.513 64.376 130.377 64.848 130.377 65.52V69H129.009V62.388H130.377V63.348ZM138.1 63.36C138.332 63.056 138.648 62.8 139.048 62.592C139.448 62.384 139.9 62.28 140.404 62.28C140.98 62.28 141.504 62.424 141.976 62.712C142.456 62.992 142.832 63.388 143.104 63.9C143.376 64.412 143.512 65 143.512 65.664C143.512 66.328 143.376 66.924 143.104 67.452C142.832 67.972 142.456 68.38 141.976 68.676C141.504 68.964 140.98 69.108 140.404 69.108C139.9 69.108 139.452 69.008 139.06 68.808C138.668 68.6 138.348 68.344 138.1 68.04V72.144H136.732V62.388H138.1V63.36ZM142.12 65.664C142.12 65.208 142.024 64.816 141.832 64.488C141.648 64.152 141.4 63.9 141.088 63.732C140.784 63.556 140.456 63.468 140.104 63.468C139.76 63.468 139.432 63.556 139.12 63.732C138.816 63.908 138.568 64.164 138.376 64.5C138.192 64.836 138.1 65.232 138.1 65.688C138.1 66.144 138.192 66.544 138.376 66.888C138.568 67.224 138.816 67.48 139.12 67.656C139.432 67.832 139.76 67.92 140.104 67.92C140.456 67.92 140.784 67.832 141.088 67.656C141.4 67.472 141.648 67.208 141.832 66.864C142.024 66.52 142.12 66.12 142.12 65.664ZM147.733 69.108C147.109 69.108 146.545 68.968 146.041 68.688C145.537 68.4 145.141 68 144.853 67.488C144.565 66.968 144.421 66.368 144.421 65.688C144.421 65.016 144.569 64.42 144.865 63.9C145.161 63.38 145.565 62.98 146.077 62.7C146.589 62.42 147.161 62.28 147.793 62.28C148.425 62.28 148.997 62.42 149.509 62.7C150.021 62.98 150.425 63.38 150.721 63.9C151.017 64.42 151.165 65.016 151.165 65.688C151.165 66.36 151.013 66.956 150.709 67.476C150.405 67.996 149.989 68.4 149.461 68.688C148.941 68.968 148.365 69.108 147.733 69.108ZM147.733 67.92C148.085 67.92 148.413 67.836 148.717 67.668C149.029 67.5 149.281 67.248 149.473 66.912C149.665 66.576 149.761 66.168 149.761 65.688C149.761 65.208 149.669 64.804 149.485 64.476C149.301 64.14 149.057 63.888 148.753 63.72C148.449 63.552 148.121 63.468 147.769 63.468C147.417 63.468 147.089 63.552 146.785 63.72C146.489 63.888 146.253 64.14 146.077 64.476C145.901 64.804 145.813 65.208 145.813 65.688C145.813 66.4 145.993 66.952 146.353 67.344C146.721 67.728 147.181 67.92 147.733 67.92ZM154.917 69.108C154.397 69.108 153.929 69.016 153.513 68.832C153.105 68.64 152.781 68.384 152.541 68.064C152.301 67.736 152.173 67.372 152.157 66.972H153.573C153.597 67.252 153.729 67.488 153.969 67.68C154.217 67.864 154.525 67.956 154.893 67.956C155.277 67.956 155.573 67.884 155.781 67.74C155.997 67.588 156.105 67.396 156.105 67.164C156.105 66.916 155.985 66.732 155.745 66.612C155.513 66.492 155.141 66.36 154.629 66.216C154.133 66.08 153.729 65.948 153.417 65.82C153.105 65.692 152.833 65.496 152.601 65.232C152.377 64.968 152.265 64.62 152.265 64.188C152.265 63.836 152.369 63.516 152.577 63.228C152.785 62.932 153.081 62.7 153.465 62.532C153.857 62.364 154.305 62.28 154.809 62.28C155.561 62.28 156.165 62.472 156.621 62.856C157.085 63.232 157.333 63.748 157.365 64.404H155.997C155.973 64.108 155.853 63.872 155.637 63.696C155.421 63.52 155.129 63.432 154.761 63.432C154.401 63.432 154.125 63.5 153.933 63.636C153.741 63.772 153.645 63.952 153.645 64.176C153.645 64.352 153.709 64.5 153.837 64.62C153.965 64.74 154.121 64.836 154.305 64.908C154.489 64.972 154.761 65.056 155.121 65.16C155.601 65.288 155.993 65.42 156.297 65.556C156.609 65.684 156.877 65.876 157.101 66.132C157.325 66.388 157.441 66.728 157.449 67.152C157.449 67.528 157.345 67.864 157.137 68.16C156.929 68.456 156.633 68.688 156.249 68.856C155.873 69.024 155.429 69.108 154.917 69.108ZM160.523 63.504V67.164C160.523 67.412 160.579 67.592 160.691 67.704C160.811 67.808 161.011 67.86 161.291 67.86H162.131V69H161.051C160.435 69 159.963 68.856 159.635 68.568C159.307 68.28 159.143 67.812 159.143 67.164V63.504H158.363V62.388H159.143V60.744H160.523V62.388H162.131V63.504H160.523ZM162.936 65.664C162.936 65 163.072 64.412 163.344 63.9C163.624 63.388 164 62.992 164.472 62.712C164.952 62.424 165.48 62.28 166.056 62.28C166.576 62.28 167.028 62.384 167.412 62.592C167.804 62.792 168.116 63.044 168.348 63.348V62.388H169.728V69H168.348V68.016C168.116 68.328 167.8 68.588 167.4 68.796C167 69.004 166.544 69.108 166.032 69.108C165.464 69.108 164.944 68.964 164.472 68.676C164 68.38 163.624 67.972 163.344 67.452C163.072 66.924 162.936 66.328 162.936 65.664ZM168.348 65.688C168.348 65.232 168.252 64.836 168.06 64.5C167.876 64.164 167.632 63.908 167.328 63.732C167.024 63.556 166.696 63.468 166.344 63.468C165.992 63.468 165.664 63.556 165.36 63.732C165.056 63.9 164.808 64.152 164.616 64.488C164.432 64.816 164.34 65.208 164.34 65.664C164.34 66.12 164.432 66.52 164.616 66.864C164.808 67.208 165.056 67.472 165.36 67.656C165.672 67.832 166 67.92 166.344 67.92C166.696 67.92 167.024 67.832 167.328 67.656C167.632 67.48 167.876 67.224 168.06 66.888C168.252 66.544 168.348 66.144 168.348 65.688ZM172.893 60.12V69H171.525V60.12H172.893ZM177.35 65.688C177.35 65.008 177.486 64.412 177.758 63.9C178.038 63.38 178.422 62.98 178.91 62.7C179.398 62.42 179.958 62.28 180.59 62.28C181.39 62.28 182.05 62.472 182.57 62.856C183.098 63.232 183.454 63.772 183.638 64.476H182.162C182.042 64.148 181.85 63.892 181.586 63.708C181.322 63.524 180.99 63.432 180.59 63.432C180.03 63.432 179.582 63.632 179.246 64.032C178.918 64.424 178.754 64.976 178.754 65.688C178.754 66.4 178.918 66.956 179.246 67.356C179.582 67.756 180.03 67.956 180.59 67.956C181.382 67.956 181.906 67.608 182.162 66.912H183.638C183.446 67.584 183.086 68.12 182.558 68.52C182.03 68.912 181.374 69.108 180.59 69.108C179.958 69.108 179.398 68.968 178.91 68.688C178.422 68.4 178.038 68 177.758 67.488C177.486 66.968 177.35 66.368 177.35 65.688ZM187.87 69.108C187.246 69.108 186.682 68.968 186.178 68.688C185.674 68.4 185.278 68 184.99 67.488C184.702 66.968 184.558 66.368 184.558 65.688C184.558 65.016 184.706 64.42 185.002 63.9C185.298 63.38 185.702 62.98 186.214 62.7C186.726 62.42 187.298 62.28 187.93 62.28C188.562 62.28 189.134 62.42 189.646 62.7C190.158 62.98 190.562 63.38 190.858 63.9C191.154 64.42 191.302 65.016 191.302 65.688C191.302 66.36 191.15 66.956 190.846 67.476C190.542 67.996 190.126 68.4 189.598 68.688C189.078 68.968 188.502 69.108 187.87 69.108ZM187.87 67.92C188.222 67.92 188.55 67.836 188.854 67.668C189.166 67.5 189.418 67.248 189.61 66.912C189.802 66.576 189.898 66.168 189.898 65.688C189.898 65.208 189.806 64.804 189.622 64.476C189.438 64.14 189.194 63.888 188.89 63.72C188.586 63.552 188.258 63.468 187.906 63.468C187.554 63.468 187.226 63.552 186.922 63.72C186.626 63.888 186.39 64.14 186.214 64.476C186.038 64.804 185.95 65.208 185.95 65.688C185.95 66.4 186.13 66.952 186.49 67.344C186.858 67.728 187.318 67.92 187.87 67.92ZM192.198 65.664C192.198 65 192.334 64.412 192.606 63.9C192.886 63.388 193.262 62.992 193.734 62.712C194.214 62.424 194.746 62.28 195.33 62.28C195.762 62.28 196.186 62.376 196.602 62.568C197.026 62.752 197.362 63 197.61 63.312V60.12H198.99V69H197.61V68.004C197.386 68.324 197.074 68.588 196.674 68.796C196.282 69.004 195.83 69.108 195.318 69.108C194.742 69.108 194.214 68.964 193.734 68.676C193.262 68.38 192.886 67.972 192.606 67.452C192.334 66.924 192.198 66.328 192.198 65.664ZM197.61 65.688C197.61 65.232 197.514 64.836 197.322 64.5C197.138 64.164 196.894 63.908 196.59 63.732C196.286 63.556 195.958 63.468 195.606 63.468C195.254 63.468 194.926 63.556 194.622 63.732C194.318 63.9 194.07 64.152 193.878 64.488C193.694 64.816 193.602 65.208 193.602 65.664C193.602 66.12 193.694 66.52 193.878 66.864C194.07 67.208 194.318 67.472 194.622 67.656C194.934 67.832 195.262 67.92 195.606 67.92C195.958 67.92 196.286 67.832 196.59 67.656C196.894 67.48 197.138 67.224 197.322 66.888C197.514 66.544 197.61 66.144 197.61 65.688ZM206.847 65.532C206.847 65.78 206.831 66.004 206.799 66.204H201.747C201.787 66.732 201.983 67.156 202.335 67.476C202.687 67.796 203.119 67.956 203.631 67.956C204.367 67.956 204.887 67.648 205.191 67.032H206.667C206.467 67.64 206.103 68.14 205.575 68.532C205.055 68.916 204.407 69.108 203.631 69.108C202.999 69.108 202.431 68.968 201.927 68.688C201.431 68.4 201.039 68 200.751 67.488C200.471 66.968 200.331 66.368 200.331 65.688C200.331 65.008 200.467 64.412 200.739 63.9C201.019 63.38 201.407 62.98 201.903 62.7C202.407 62.42 202.983 62.28 203.631 62.28C204.255 62.28 204.811 62.416 205.299 62.688C205.787 62.96 206.167 63.344 206.439 63.84C206.711 64.328 206.847 64.892 206.847 65.532ZM205.419 65.1C205.411 64.596 205.231 64.192 204.879 63.888C204.527 63.584 204.091 63.432 203.571 63.432C203.099 63.432 202.695 63.584 202.359 63.888C202.023 64.184 201.823 64.588 201.759 65.1H205.419ZM214.082 63.504H212.858V69H211.478V63.504H210.698V62.388H211.478V61.92C211.478 61.16 211.678 60.608 212.078 60.264C212.486 59.912 213.122 59.736 213.986 59.736V60.876C213.57 60.876 213.278 60.956 213.11 61.116C212.942 61.268 212.858 61.536 212.858 61.92V62.388H214.082V63.504ZM218.163 69.108C217.539 69.108 216.975 68.968 216.471 68.688C215.967 68.4 215.571 68 215.283 67.488C214.995 66.968 214.851 66.368 214.851 65.688C214.851 65.016 214.999 64.42 215.295 63.9C215.591 63.38 215.995 62.98 216.507 62.7C217.019 62.42 217.591 62.28 218.223 62.28C218.855 62.28 219.427 62.42 219.939 62.7C220.451 62.98 220.855 63.38 221.151 63.9C221.447 64.42 221.595 65.016 221.595 65.688C221.595 66.36 221.443 66.956 221.139 67.476C220.835 67.996 220.419 68.4 219.891 68.688C219.371 68.968 218.795 69.108 218.163 69.108ZM218.163 67.92C218.515 67.92 218.843 67.836 219.147 67.668C219.459 67.5 219.711 67.248 219.903 66.912C220.095 66.576 220.191 66.168 220.191 65.688C220.191 65.208 220.099 64.804 219.915 64.476C219.731 64.14 219.487 63.888 219.183 63.72C218.879 63.552 218.551 63.468 218.199 63.468C217.847 63.468 217.519 63.552 217.215 63.72C216.919 63.888 216.683 64.14 216.507 64.476C216.331 64.804 216.243 65.208 216.243 65.688C216.243 66.4 216.423 66.952 216.783 67.344C217.151 67.728 217.611 67.92 218.163 67.92ZM224.315 63.348C224.515 63.012 224.779 62.752 225.107 62.568C225.443 62.376 225.839 62.28 226.295 62.28V63.696H225.947C225.411 63.696 225.003 63.832 224.723 64.104C224.451 64.376 224.315 64.848 224.315 65.52V69H222.947V62.388H224.315V63.348ZM233.394 60.66C234.282 60.66 235.058 60.832 235.722 61.176C236.394 61.512 236.91 62 237.27 62.64C237.638 63.272 237.822 64.012 237.822 64.86C237.822 65.708 237.638 66.444 237.27 67.068C236.91 67.692 236.394 68.172 235.722 68.508C235.058 68.836 234.282 69 233.394 69H230.67V60.66H233.394ZM233.394 67.884C234.37 67.884 235.118 67.62 235.638 67.092C236.158 66.564 236.418 65.82 236.418 64.86C236.418 63.892 236.158 63.136 235.638 62.592C235.118 62.048 234.37 61.776 233.394 61.776H232.038V67.884H233.394ZM245.237 65.532C245.237 65.78 245.221 66.004 245.189 66.204H240.137C240.177 66.732 240.373 67.156 240.725 67.476C241.077 67.796 241.509 67.956 242.021 67.956C242.757 67.956 243.277 67.648 243.581 67.032H245.057C244.857 67.64 244.493 68.14 243.965 68.532C243.445 68.916 242.797 69.108 242.021 69.108C241.389 69.108 240.821 68.968 240.317 68.688C239.821 68.4 239.429 68 239.141 67.488C238.861 66.968 238.721 66.368 238.721 65.688C238.721 65.008 238.857 64.412 239.129 63.9C239.409 63.38 239.797 62.98 240.293 62.7C240.797 62.42 241.373 62.28 242.021 62.28C242.645 62.28 243.201 62.416 243.689 62.688C244.177 62.96 244.557 63.344 244.829 63.84C245.101 64.328 245.237 64.892 245.237 65.532ZM243.809 65.1C243.801 64.596 243.621 64.192 243.269 63.888C242.917 63.584 242.481 63.432 241.961 63.432C241.489 63.432 241.085 63.584 240.749 63.888C240.413 64.184 240.213 64.588 240.149 65.1H243.809ZM247.952 60.12V69H246.584V60.12H247.952ZM250.444 61.512C250.196 61.512 249.988 61.428 249.82 61.26C249.652 61.092 249.568 60.884 249.568 60.636C249.568 60.388 249.652 60.18 249.82 60.012C249.988 59.844 250.196 59.76 250.444 59.76C250.684 59.76 250.888 59.844 251.056 60.012C251.224 60.18 251.308 60.388 251.308 60.636C251.308 60.884 251.224 61.092 251.056 61.26C250.888 61.428 250.684 61.512 250.444 61.512ZM251.116 62.388V69H249.748V62.388H251.116ZM255.468 67.776L257.34 62.388H258.792L256.272 69H254.64L252.132 62.388H253.596L255.468 67.776ZM265.886 65.532C265.886 65.78 265.87 66.004 265.838 66.204H260.786C260.826 66.732 261.022 67.156 261.374 67.476C261.726 67.796 262.158 67.956 262.67 67.956C263.406 67.956 263.926 67.648 264.23 67.032H265.706C265.506 67.64 265.142 68.14 264.614 68.532C264.094 68.916 263.446 69.108 262.67 69.108C262.038 69.108 261.47 68.968 260.966 68.688C260.47 68.4 260.078 68 259.79 67.488C259.51 66.968 259.37 66.368 259.37 65.688C259.37 65.008 259.506 64.412 259.778 63.9C260.058 63.38 260.446 62.98 260.942 62.7C261.446 62.42 262.022 62.28 262.67 62.28C263.294 62.28 263.85 62.416 264.338 62.688C264.826 62.96 265.206 63.344 265.478 63.84C265.75 64.328 265.886 64.892 265.886 65.532ZM264.458 65.1C264.45 64.596 264.27 64.192 263.918 63.888C263.566 63.584 263.13 63.432 262.61 63.432C262.138 63.432 261.734 63.584 261.398 63.888C261.062 64.184 260.862 64.588 260.798 65.1H264.458ZM268.6 63.348C268.8 63.012 269.064 62.752 269.392 62.568C269.728 62.376 270.124 62.28 270.58 62.28V63.696H270.232C269.696 63.696 269.288 63.832 269.008 64.104C268.736 64.376 268.6 64.848 268.6 65.52V69H267.232V62.388H268.6V63.348ZM277.79 62.388L273.734 72.108H272.318L273.662 68.892L271.058 62.388H272.582L274.442 67.428L276.374 62.388H277.79ZM286.967 67.296H283.475L282.875 69H281.447L284.435 60.648H286.019L289.007 69H287.567L286.967 67.296ZM286.583 66.18L285.227 62.304L283.859 66.18H286.583ZM292.862 67.776L294.734 62.388H296.186L293.666 69H292.034L289.526 62.388H290.99L292.862 67.776ZM296.764 65.664C296.764 65 296.9 64.412 297.172 63.9C297.452 63.388 297.828 62.992 298.3 62.712C298.78 62.424 299.308 62.28 299.884 62.28C300.404 62.28 300.856 62.384 301.24 62.592C301.632 62.792 301.944 63.044 302.176 63.348V62.388H303.556V69H302.176V68.016C301.944 68.328 301.628 68.588 301.228 68.796C300.828 69.004 300.372 69.108 299.86 69.108C299.292 69.108 298.772 68.964 298.3 68.676C297.828 68.38 297.452 67.972 297.172 67.452C296.9 66.924 296.764 66.328 296.764 65.664ZM302.176 65.688C302.176 65.232 302.08 64.836 301.888 64.5C301.704 64.164 301.46 63.908 301.156 63.732C300.852 63.556 300.524 63.468 300.172 63.468C299.82 63.468 299.492 63.556 299.188 63.732C298.884 63.9 298.636 64.152 298.444 64.488C298.26 64.816 298.168 65.208 298.168 65.664C298.168 66.12 298.26 66.52 298.444 66.864C298.636 67.208 298.884 67.472 299.188 67.656C299.5 67.832 299.828 67.92 300.172 67.92C300.524 67.92 300.852 67.832 301.156 67.656C301.46 67.48 301.704 67.224 301.888 66.888C302.08 66.544 302.176 66.144 302.176 65.688ZM306.049 61.512C305.801 61.512 305.593 61.428 305.425 61.26C305.257 61.092 305.173 60.884 305.173 60.636C305.173 60.388 305.257 60.18 305.425 60.012C305.593 59.844 305.801 59.76 306.049 59.76C306.289 59.76 306.493 59.844 306.661 60.012C306.829 60.18 306.913 60.388 306.913 60.636C306.913 60.884 306.829 61.092 306.661 61.26C306.493 61.428 306.289 61.512 306.049 61.512ZM306.721 62.388V69H305.353V62.388H306.721ZM309.885 60.12V69H308.517V60.12H309.885ZM311.225 65.664C311.225 65 311.361 64.412 311.633 63.9C311.913 63.388 312.289 62.992 312.761 62.712C313.241 62.424 313.769 62.28 314.345 62.28C314.865 62.28 315.317 62.384 315.701 62.592C316.093 62.792 316.405 63.044 316.637 63.348V62.388H318.017V69H316.637V68.016C316.405 68.328 316.089 68.588 315.689 68.796C315.289 69.004 314.833 69.108 314.321 69.108C313.753 69.108 313.233 68.964 312.761 68.676C312.289 68.38 311.913 67.972 311.633 67.452C311.361 66.924 311.225 66.328 311.225 65.664ZM316.637 65.688C316.637 65.232 316.541 64.836 316.349 64.5C316.165 64.164 315.921 63.908 315.617 63.732C315.313 63.556 314.985 63.468 314.633 63.468C314.281 63.468 313.953 63.556 313.649 63.732C313.345 63.9 313.097 64.152 312.905 64.488C312.721 64.816 312.629 65.208 312.629 65.664C312.629 66.12 312.721 66.52 312.905 66.864C313.097 67.208 313.345 67.472 313.649 67.656C313.961 67.832 314.289 67.92 314.633 67.92C314.985 67.92 315.313 67.832 315.617 67.656C315.921 67.48 316.165 67.224 316.349 66.888C316.541 66.544 316.637 66.144 316.637 65.688ZM321.182 63.372C321.414 63.052 321.73 62.792 322.13 62.592C322.538 62.384 322.99 62.28 323.486 62.28C324.07 62.28 324.598 62.42 325.07 62.7C325.542 62.98 325.914 63.38 326.186 63.9C326.458 64.412 326.594 65 326.594 65.664C326.594 66.328 326.458 66.924 326.186 67.452C325.914 67.972 325.538 68.38 325.058 68.676C324.586 68.964 324.062 69.108 323.486 69.108C322.974 69.108 322.518 69.008 322.118 68.808C321.726 68.608 321.414 68.352 321.182 68.04V69H319.814V60.12H321.182V63.372ZM325.202 65.664C325.202 65.208 325.106 64.816 324.914 64.488C324.73 64.152 324.482 63.9 324.17 63.732C323.866 63.556 323.538 63.468 323.186 63.468C322.842 63.468 322.514 63.556 322.202 63.732C321.898 63.908 321.65 64.164 321.458 64.5C321.274 64.836 321.182 65.232 321.182 65.688C321.182 66.144 321.274 66.544 321.458 66.888C321.65 67.224 321.898 67.48 322.202 67.656C322.514 67.832 322.842 67.92 323.186 67.92C323.538 67.92 323.866 67.832 324.17 67.656C324.482 67.472 324.73 67.208 324.914 66.864C325.106 66.52 325.202 66.12 325.202 65.664ZM328.643 61.512C328.395 61.512 328.187 61.428 328.019 61.26C327.851 61.092 327.767 60.884 327.767 60.636C327.767 60.388 327.851 60.18 328.019 60.012C328.187 59.844 328.395 59.76 328.643 59.76C328.883 59.76 329.087 59.844 329.255 60.012C329.423 60.18 329.507 60.388 329.507 60.636C329.507 60.884 329.423 61.092 329.255 61.26C329.087 61.428 328.883 61.512 328.643 61.512ZM329.315 62.388V69H327.947V62.388H329.315ZM332.479 60.12V69H331.111V60.12H332.479ZM334.971 61.512C334.723 61.512 334.515 61.428 334.347 61.26C334.179 61.092 334.095 60.884 334.095 60.636C334.095 60.388 334.179 60.18 334.347 60.012C334.515 59.844 334.723 59.76 334.971 59.76C335.211 59.76 335.415 59.844 335.583 60.012C335.751 60.18 335.835 60.388 335.835 60.636C335.835 60.884 335.751 61.092 335.583 61.26C335.415 61.428 335.211 61.512 334.971 61.512ZM335.643 62.388V69H334.275V62.388H335.643ZM339.035 63.504V67.164C339.035 67.412 339.091 67.592 339.203 67.704C339.323 67.808 339.523 67.86 339.803 67.86H340.643V69H339.563C338.947 69 338.475 68.856 338.147 68.568C337.819 68.28 337.655 67.812 337.655 67.164V63.504H336.875V62.388H337.655V60.744H339.035V62.388H340.643V63.504H339.035ZM347.856 62.388L343.8 72.108H342.384L343.728 68.892L341.124 62.388H342.648L344.508 67.428L346.44 62.388H347.856Z" fill="black"/>
<path d="M72 70.2H347.988V70.8H72V70.2Z" fill="black"/>
<g clip-path="url(#clip1_261_4869)">
<path d="M49.3334 129.333C48.9258 126.4 47.5652 123.683 45.4611 121.599C43.3571 119.516 40.6263 118.182 37.6895 117.803C34.7527 117.424 31.7728 118.021 29.2088 119.502C26.6447 120.983 24.6388 123.267 23.5001 126M22.6667 119.333V126H29.3334" stroke="black" stroke-width="2" stroke-linecap="round" stroke-linejoin="round"/>
<path d="M22.6667 132.667C23.0743 135.6 24.435 138.317 26.539 140.401C28.6431 142.484 31.3738 143.818 34.3106 144.197C37.2474 144.576 40.2274 143.979 42.7914 142.498C45.3554 141.017 47.3613 138.733 48.5001 136M49.3334 142.667V136H42.6667" stroke="black" stroke-width="2" stroke-linecap="round" stroke-linejoin="round"/>
</g>
<path d="M78.976 124L76.416 119.552H75.024V124H73.2V112.88H77.04C77.8933 112.88 78.6133 113.029 79.2 113.328C79.7973 113.627 80.24 114.027 80.528 114.528C80.8267 115.029 80.976 115.589 80.976 116.208C80.976 116.933 80.7627 117.595 80.336 118.192C79.92 118.779 79.2747 119.179 78.4 119.392L81.152 124H78.976ZM75.024 118.096H77.04C77.7227 118.096 78.2347 117.925 78.576 117.584C78.928 117.243 79.104 116.784 79.104 116.208C79.104 115.632 78.9333 115.184 78.592 114.864C78.2507 114.533 77.7333 114.368 77.04 114.368H75.024V118.096ZM91.3894 119.376C91.3894 119.707 91.368 120.005 91.3254 120.272H84.5894C84.6427 120.976 84.904 121.541 85.3734 121.968C85.8427 122.395 86.4187 122.608 87.1014 122.608C88.0827 122.608 88.776 122.197 89.1814 121.376H91.1494C90.8827 122.187 90.3974 122.853 89.6934 123.376C89 123.888 88.136 124.144 87.1014 124.144C86.2587 124.144 85.5014 123.957 84.8294 123.584C84.168 123.2 83.6454 122.667 83.2614 121.984C82.888 121.291 82.7014 120.491 82.7014 119.584C82.7014 118.677 82.8827 117.883 83.2454 117.2C83.6187 116.507 84.136 115.973 84.7974 115.6C85.4694 115.227 86.2374 115.04 87.1014 115.04C87.9334 115.04 88.6747 115.221 89.3254 115.584C89.976 115.947 90.4827 116.459 90.8454 117.12C91.208 117.771 91.3894 118.523 91.3894 119.376ZM89.4854 118.8C89.4747 118.128 89.2347 117.589 88.7654 117.184C88.296 116.779 87.7147 116.576 87.0214 116.576C86.392 116.576 85.8534 116.779 85.4054 117.184C84.9574 117.579 84.6907 118.117 84.6054 118.8H89.4854ZM95.3124 116.672V121.552C95.3124 121.883 95.387 122.123 95.5364 122.272C95.6964 122.411 95.963 122.48 96.3364 122.48H97.4564V124H96.0164C95.195 124 94.5657 123.808 94.1284 123.424C93.691 123.04 93.4724 122.416 93.4724 121.552V116.672H92.4324V115.184H93.4724V112.992H95.3124V115.184H97.4564V116.672H95.3124ZM107.122 115.184V124H105.298V122.96C105.01 123.323 104.631 123.611 104.162 123.824C103.703 124.027 103.212 124.128 102.69 124.128C101.996 124.128 101.372 123.984 100.818 123.696C100.274 123.408 99.8415 122.981 99.5215 122.416C99.2122 121.851 99.0575 121.168 99.0575 120.368V115.184H100.866V120.096C100.866 120.885 101.063 121.493 101.458 121.92C101.852 122.336 102.391 122.544 103.074 122.544C103.756 122.544 104.295 122.336 104.69 121.92C105.095 121.493 105.298 120.885 105.298 120.096V115.184H107.122ZM111.352 116.464C111.619 116.016 111.971 115.669 112.408 115.424C112.856 115.168 113.384 115.04 113.992 115.04V116.928H113.528C112.813 116.928 112.269 117.109 111.896 117.472C111.533 117.835 111.352 118.464 111.352 119.36V124H109.528V115.184H111.352V116.464ZM120.117 115.04C120.81 115.04 121.429 115.184 121.973 115.472C122.527 115.76 122.959 116.187 123.269 116.752C123.578 117.317 123.733 118 123.733 118.8V124H121.925V119.072C121.925 118.283 121.727 117.68 121.333 117.264C120.938 116.837 120.399 116.624 119.717 116.624C119.034 116.624 118.49 116.837 118.085 117.264C117.69 117.68 117.493 118.283 117.493 119.072V124H115.669V115.184H117.493V116.192C117.791 115.829 118.17 115.547 118.629 115.344C119.098 115.141 119.594 115.04 120.117 115.04ZM133.848 112.88C135.032 112.88 136.066 113.109 136.952 113.568C137.848 114.016 138.536 114.667 139.016 115.52C139.506 116.363 139.752 117.349 139.752 118.48C139.752 119.611 139.506 120.592 139.016 121.424C138.536 122.256 137.848 122.896 136.952 123.344C136.066 123.781 135.032 124 133.848 124H130.216V112.88H133.848ZM133.848 122.512C135.149 122.512 136.146 122.16 136.84 121.456C137.533 120.752 137.88 119.76 137.88 118.48C137.88 117.189 137.533 116.181 136.84 115.456C136.146 114.731 135.149 114.368 133.848 114.368H132.04V122.512H133.848ZM149.639 119.376C149.639 119.707 149.618 120.005 149.575 120.272H142.839C142.893 120.976 143.154 121.541 143.623 121.968C144.093 122.395 144.669 122.608 145.351 122.608C146.333 122.608 147.026 122.197 147.431 121.376H149.399C149.133 122.187 148.647 122.853 147.943 123.376C147.25 123.888 146.386 124.144 145.351 124.144C144.509 124.144 143.751 123.957 143.079 123.584C142.418 123.2 141.895 122.667 141.511 121.984C141.138 121.291 140.951 120.491 140.951 119.584C140.951 118.677 141.133 117.883 141.495 117.2C141.869 116.507 142.386 115.973 143.047 115.6C143.719 115.227 144.487 115.04 145.351 115.04C146.183 115.04 146.925 115.221 147.575 115.584C148.226 115.947 148.733 116.459 149.095 117.12C149.458 117.771 149.639 118.523 149.639 119.376ZM147.735 118.8C147.725 118.128 147.485 117.589 147.015 117.184C146.546 116.779 145.965 116.576 145.271 116.576C144.642 116.576 144.103 116.779 143.655 117.184C143.207 117.579 142.941 118.117 142.855 118.8H147.735ZM153.258 112.16V124H151.434V112.16H153.258ZM156.581 114.016C156.25 114.016 155.973 113.904 155.749 113.68C155.525 113.456 155.413 113.179 155.413 112.848C155.413 112.517 155.525 112.24 155.749 112.016C155.973 111.792 156.25 111.68 156.581 111.68C156.901 111.68 157.173 111.792 157.397 112.016C157.621 112.24 157.733 112.517 157.733 112.848C157.733 113.179 157.621 113.456 157.397 113.68C157.173 113.904 156.901 114.016 156.581 114.016ZM157.477 115.184V124H155.653V115.184H157.477ZM163.28 122.368L165.776 115.184H167.712L164.352 124H162.176L158.832 115.184H160.784L163.28 122.368ZM177.171 119.376C177.171 119.707 177.149 120.005 177.107 120.272H170.371C170.424 120.976 170.685 121.541 171.155 121.968C171.624 122.395 172.2 122.608 172.883 122.608C173.864 122.608 174.557 122.197 174.963 121.376H176.931C176.664 122.187 176.179 122.853 175.475 123.376C174.781 123.888 173.917 124.144 172.883 124.144C172.04 124.144 171.283 123.957 170.611 123.584C169.949 123.2 169.427 122.667 169.043 121.984C168.669 121.291 168.483 120.491 168.483 119.584C168.483 118.677 168.664 117.883 169.027 117.2C169.4 116.507 169.917 115.973 170.579 115.6C171.251 115.227 172.019 115.04 172.883 115.04C173.715 115.04 174.456 115.221 175.107 115.584C175.757 115.947 176.264 116.459 176.627 117.12C176.989 117.771 177.171 118.523 177.171 119.376ZM175.267 118.8C175.256 118.128 175.016 117.589 174.547 117.184C174.077 116.779 173.496 116.576 172.803 116.576C172.173 116.576 171.635 116.779 171.187 117.184C170.739 117.579 170.472 118.117 170.387 118.8H175.267ZM180.79 116.464C181.056 116.016 181.408 115.669 181.846 115.424C182.294 115.168 182.822 115.04 183.43 115.04V116.928H182.966C182.251 116.928 181.707 117.109 181.334 117.472C180.971 117.835 180.79 118.464 180.79 119.36V124H178.966V115.184H180.79V116.464ZM193.042 115.184L187.634 128.144H185.746L187.538 123.856L184.066 115.184H186.098L188.578 121.904L191.154 115.184H193.042Z" fill="black"/>
<path d="M77.808 142.66V143.776H74.268V146.236H77.028V147.352H74.268V151H72.9V142.66H77.808ZM80.4438 145.348C80.6438 145.012 80.9078 144.752 81.2358 144.568C81.5718 144.376 81.9678 144.28 82.4238 144.28V145.696H82.0758C81.5398 145.696 81.1318 145.832 80.8518 146.104C80.5798 146.376 80.4438 146.848 80.4438 147.52V151H79.0758V144.388H80.4438V145.348ZM89.7413 147.532C89.7413 147.78 89.7253 148.004 89.6933 148.204H84.6413C84.6813 148.732 84.8773 149.156 85.2293 149.476C85.5813 149.796 86.0133 149.956 86.5253 149.956C87.2613 149.956 87.7813 149.648 88.0853 149.032H89.5612C89.3613 149.64 88.9973 150.14 88.4693 150.532C87.9493 150.916 87.3013 151.108 86.5253 151.108C85.8933 151.108 85.3253 150.968 84.8213 150.688C84.3253 150.4 83.9333 150 83.6453 149.488C83.3653 148.968 83.2253 148.368 83.2253 147.688C83.2253 147.008 83.3613 146.412 83.6333 145.9C83.9133 145.38 84.3013 144.98 84.7973 144.7C85.3013 144.42 85.8773 144.28 86.5253 144.28C87.1493 144.28 87.7053 144.416 88.1933 144.688C88.6813 144.96 89.0613 145.344 89.3333 145.84C89.6053 146.328 89.7413 146.892 89.7413 147.532ZM88.3133 147.1C88.3053 146.596 88.1253 146.192 87.7733 145.888C87.4213 145.584 86.9853 145.432 86.4653 145.432C85.9933 145.432 85.5893 145.584 85.2533 145.888C84.9173 146.184 84.7173 146.588 84.6533 147.1H88.3133ZM97.1475 147.532C97.1475 147.78 97.1315 148.004 97.0995 148.204H92.0475C92.0875 148.732 92.2835 149.156 92.6355 149.476C92.9875 149.796 93.4195 149.956 93.9315 149.956C94.6675 149.956 95.1875 149.648 95.4915 149.032H96.9675C96.7675 149.64 96.4035 150.14 95.8755 150.532C95.3555 150.916 94.7075 151.108 93.9315 151.108C93.2995 151.108 92.7315 150.968 92.2275 150.688C91.7315 150.4 91.3395 150 91.0515 149.488C90.7715 148.968 90.6315 148.368 90.6315 147.688C90.6315 147.008 90.7675 146.412 91.0395 145.9C91.3195 145.38 91.7075 144.98 92.2035 144.7C92.7075 144.42 93.2835 144.28 93.9315 144.28C94.5555 144.28 95.1115 144.416 95.5995 144.688C96.0875 144.96 96.4675 145.344 96.7395 145.84C97.0115 146.328 97.1475 146.892 97.1475 147.532ZM95.7195 147.1C95.7115 146.596 95.5315 146.192 95.1795 145.888C94.8275 145.584 94.3915 145.432 93.8715 145.432C93.3995 145.432 92.9955 145.584 92.6595 145.888C92.3235 146.184 92.1235 146.588 92.0595 147.1H95.7195ZM101.407 144.412C101.455 143.668 101.739 143.088 102.259 142.672C102.787 142.256 103.459 142.048 104.275 142.048C104.835 142.048 105.319 142.148 105.727 142.348C106.135 142.548 106.443 142.82 106.651 143.164C106.859 143.508 106.963 143.896 106.963 144.328C106.963 144.824 106.831 145.248 106.567 145.6C106.303 145.952 105.987 146.188 105.619 146.308V146.356C106.091 146.5 106.459 146.764 106.723 147.148C106.987 147.524 107.119 148.008 107.119 148.6C107.119 149.072 107.011 149.492 106.795 149.86C106.579 150.228 106.259 150.52 105.835 150.736C105.411 150.944 104.903 151.048 104.311 151.048C103.447 151.048 102.735 150.828 102.175 150.388C101.623 149.94 101.327 149.3 101.287 148.468H102.607C102.639 148.892 102.803 149.24 103.099 149.512C103.395 149.776 103.795 149.908 104.299 149.908C104.787 149.908 105.163 149.776 105.427 149.512C105.691 149.24 105.823 148.892 105.823 148.468C105.823 147.908 105.643 147.512 105.283 147.28C104.931 147.04 104.387 146.92 103.651 146.92H103.339V145.792H103.663C104.311 145.784 104.803 145.676 105.139 145.468C105.483 145.26 105.655 144.932 105.655 144.484C105.655 144.1 105.531 143.796 105.283 143.572C105.035 143.34 104.683 143.224 104.227 143.224C103.779 143.224 103.431 143.34 103.183 143.572C102.935 143.796 102.787 144.076 102.739 144.412H101.407ZM108.556 146.512C108.556 145.128 108.788 144.048 109.252 143.272C109.724 142.488 110.532 142.096 111.676 142.096C112.82 142.096 113.624 142.488 114.088 143.272C114.56 144.048 114.796 145.128 114.796 146.512C114.796 147.912 114.56 149.008 114.088 149.8C113.624 150.584 112.82 150.976 111.676 150.976C110.532 150.976 109.724 150.584 109.252 149.8C108.788 149.008 108.556 147.912 108.556 146.512ZM113.452 146.512C113.452 145.864 113.408 145.316 113.32 144.868C113.24 144.42 113.072 144.056 112.816 143.776C112.56 143.488 112.18 143.344 111.676 143.344C111.172 143.344 110.792 143.488 110.536 143.776C110.28 144.056 110.108 144.42 110.02 144.868C109.94 145.316 109.9 145.864 109.9 146.512C109.9 147.184 109.94 147.748 110.02 148.204C110.1 148.66 110.268 149.028 110.524 149.308C110.788 149.588 111.172 149.728 111.676 149.728C112.18 149.728 112.56 149.588 112.816 149.308C113.08 149.028 113.252 148.66 113.332 148.204C113.412 147.748 113.452 147.184 113.452 146.512ZM122.265 142.66C123.153 142.66 123.929 142.832 124.593 143.176C125.265 143.512 125.781 144 126.141 144.64C126.509 145.272 126.693 146.012 126.693 146.86C126.693 147.708 126.509 148.444 126.141 149.068C125.781 149.692 125.265 150.172 124.593 150.508C123.929 150.836 123.153 151 122.265 151H119.541V142.66H122.265ZM122.265 149.884C123.241 149.884 123.989 149.62 124.509 149.092C125.029 148.564 125.289 147.82 125.289 146.86C125.289 145.892 125.029 145.136 124.509 144.592C123.989 144.048 123.241 143.776 122.265 143.776H120.909V149.884H122.265ZM127.592 147.664C127.592 147 127.728 146.412 128 145.9C128.28 145.388 128.656 144.992 129.128 144.712C129.608 144.424 130.136 144.28 130.712 144.28C131.232 144.28 131.684 144.384 132.068 144.592C132.46 144.792 132.772 145.044 133.004 145.348V144.388H134.384V151H133.004V150.016C132.772 150.328 132.456 150.588 132.056 150.796C131.656 151.004 131.2 151.108 130.688 151.108C130.12 151.108 129.6 150.964 129.128 150.676C128.656 150.38 128.28 149.972 128 149.452C127.728 148.924 127.592 148.328 127.592 147.664ZM133.004 147.688C133.004 147.232 132.908 146.836 132.716 146.5C132.532 146.164 132.288 145.908 131.984 145.732C131.68 145.556 131.352 145.468 131 145.468C130.648 145.468 130.32 145.556 130.016 145.732C129.712 145.9 129.464 146.152 129.272 146.488C129.088 146.816 128.996 147.208 128.996 147.664C128.996 148.12 129.088 148.52 129.272 148.864C129.464 149.208 129.712 149.472 130.016 149.656C130.328 149.832 130.656 149.92 131 149.92C131.352 149.92 131.68 149.832 131.984 149.656C132.288 149.48 132.532 149.224 132.716 148.888C132.908 148.544 133.004 148.144 133.004 147.688ZM142.133 144.388L138.077 154.108H136.661L138.005 150.892L135.401 144.388H136.925L138.785 149.428L140.717 144.388H142.133ZM145.566 151.108C145.046 151.108 144.578 151.016 144.162 150.832C143.754 150.64 143.43 150.384 143.19 150.064C142.95 149.736 142.822 149.372 142.806 148.972H144.222C144.246 149.252 144.378 149.488 144.618 149.68C144.866 149.864 145.174 149.956 145.542 149.956C145.926 149.956 146.222 149.884 146.43 149.74C146.646 149.588 146.754 149.396 146.754 149.164C146.754 148.916 146.634 148.732 146.394 148.612C146.162 148.492 145.79 148.36 145.278 148.216C144.782 148.08 144.378 147.948 144.066 147.82C143.754 147.692 143.482 147.496 143.25 147.232C143.026 146.968 142.914 146.62 142.914 146.188C142.914 145.836 143.018 145.516 143.226 145.228C143.434 144.932 143.73 144.7 144.114 144.532C144.506 144.364 144.954 144.28 145.458 144.28C146.21 144.28 146.814 144.472 147.27 144.856C147.734 145.232 147.982 145.748 148.014 146.404H146.646C146.622 146.108 146.502 145.872 146.286 145.696C146.07 145.52 145.778 145.432 145.41 145.432C145.05 145.432 144.774 145.5 144.582 145.636C144.39 145.772 144.294 145.952 144.294 146.176C144.294 146.352 144.358 146.5 144.486 146.62C144.614 146.74 144.77 146.836 144.954 146.908C145.138 146.972 145.41 147.056 145.77 147.16C146.25 147.288 146.642 147.42 146.946 147.556C147.258 147.684 147.526 147.876 147.75 148.132C147.974 148.388 148.09 148.728 148.098 149.152C148.098 149.528 147.994 149.864 147.786 150.16C147.578 150.456 147.282 150.688 146.898 150.856C146.522 151.024 146.078 151.108 145.566 151.108ZM155.417 142.66C156.305 142.66 157.081 142.832 157.745 143.176C158.417 143.512 158.933 144 159.293 144.64C159.661 145.272 159.845 146.012 159.845 146.86C159.845 147.708 159.661 148.444 159.293 149.068C158.933 149.692 158.417 150.172 157.745 150.508C157.081 150.836 156.305 151 155.417 151H152.693V142.66H155.417ZM155.417 149.884C156.393 149.884 157.141 149.62 157.661 149.092C158.181 148.564 158.441 147.82 158.441 146.86C158.441 145.892 158.181 145.136 157.661 144.592C157.141 144.048 156.393 143.776 155.417 143.776H154.061V149.884H155.417ZM167.261 147.532C167.261 147.78 167.245 148.004 167.213 148.204H162.161C162.201 148.732 162.397 149.156 162.749 149.476C163.101 149.796 163.533 149.956 164.045 149.956C164.781 149.956 165.301 149.648 165.605 149.032H167.081C166.881 149.64 166.517 150.14 165.989 150.532C165.469 150.916 164.821 151.108 164.045 151.108C163.413 151.108 162.845 150.968 162.341 150.688C161.845 150.4 161.453 150 161.165 149.488C160.885 148.968 160.745 148.368 160.745 147.688C160.745 147.008 160.881 146.412 161.153 145.9C161.433 145.38 161.821 144.98 162.317 144.7C162.821 144.42 163.397 144.28 164.045 144.28C164.669 144.28 165.225 144.416 165.713 144.688C166.201 144.96 166.581 145.344 166.853 145.84C167.125 146.328 167.261 146.892 167.261 147.532ZM165.833 147.1C165.825 146.596 165.645 146.192 165.293 145.888C164.941 145.584 164.505 145.432 163.985 145.432C163.513 145.432 163.109 145.584 162.773 145.888C162.437 146.184 162.237 146.588 162.173 147.1H165.833ZM169.975 142.12V151H168.607V142.12H169.975ZM172.467 143.512C172.219 143.512 172.011 143.428 171.843 143.26C171.675 143.092 171.591 142.884 171.591 142.636C171.591 142.388 171.675 142.18 171.843 142.012C172.011 141.844 172.219 141.76 172.467 141.76C172.707 141.76 172.911 141.844 173.079 142.012C173.247 142.18 173.331 142.388 173.331 142.636C173.331 142.884 173.247 143.092 173.079 143.26C172.911 143.428 172.707 143.512 172.467 143.512ZM173.139 144.388V151H171.771V144.388H173.139ZM177.491 149.776L179.363 144.388H180.815L178.295 151H176.663L174.155 144.388H175.619L177.491 149.776ZM187.909 147.532C187.909 147.78 187.893 148.004 187.861 148.204H182.809C182.849 148.732 183.045 149.156 183.397 149.476C183.749 149.796 184.181 149.956 184.693 149.956C185.429 149.956 185.949 149.648 186.253 149.032H187.729C187.529 149.64 187.165 150.14 186.637 150.532C186.117 150.916 185.469 151.108 184.693 151.108C184.061 151.108 183.493 150.968 182.989 150.688C182.493 150.4 182.101 150 181.813 149.488C181.533 148.968 181.393 148.368 181.393 147.688C181.393 147.008 181.529 146.412 181.801 145.9C182.081 145.38 182.469 144.98 182.965 144.7C183.469 144.42 184.045 144.28 184.693 144.28C185.317 144.28 185.873 144.416 186.361 144.688C186.849 144.96 187.229 145.344 187.501 145.84C187.773 146.328 187.909 146.892 187.909 147.532ZM186.481 147.1C186.473 146.596 186.293 146.192 185.941 145.888C185.589 145.584 185.153 145.432 184.633 145.432C184.161 145.432 183.757 145.584 183.421 145.888C183.085 146.184 182.885 146.588 182.821 147.1H186.481ZM190.623 145.348C190.823 145.012 191.087 144.752 191.415 144.568C191.751 144.376 192.147 144.28 192.603 144.28V145.696H192.255C191.719 145.696 191.311 145.832 191.031 146.104C190.759 146.376 190.623 146.848 190.623 147.52V151H189.255V144.388H190.623V145.348ZM199.813 144.388L195.757 154.108H194.341L195.685 150.892L193.081 144.388H194.605L196.465 149.428L198.397 144.388H199.813ZM208.295 151L206.375 147.664H205.331V151H203.963V142.66H206.843C207.483 142.66 208.023 142.772 208.463 142.996C208.911 143.22 209.243 143.52 209.459 143.896C209.683 144.272 209.795 144.692 209.795 145.156C209.795 145.7 209.635 146.196 209.315 146.644C209.003 147.084 208.519 147.384 207.863 147.544L209.927 151H208.295ZM205.331 146.572H206.843C207.355 146.572 207.739 146.444 207.995 146.188C208.259 145.932 208.391 145.588 208.391 145.156C208.391 144.724 208.263 144.388 208.007 144.148C207.751 143.9 207.363 143.776 206.843 143.776H205.331V146.572ZM217.605 147.532C217.605 147.78 217.589 148.004 217.557 148.204H212.505C212.545 148.732 212.741 149.156 213.093 149.476C213.445 149.796 213.877 149.956 214.389 149.956C215.125 149.956 215.645 149.648 215.949 149.032H217.425C217.225 149.64 216.861 150.14 216.333 150.532C215.813 150.916 215.165 151.108 214.389 151.108C213.757 151.108 213.189 150.968 212.685 150.688C212.189 150.4 211.797 150 211.509 149.488C211.229 148.968 211.089 148.368 211.089 147.688C211.089 147.008 211.225 146.412 211.497 145.9C211.777 145.38 212.165 144.98 212.661 144.7C213.165 144.42 213.741 144.28 214.389 144.28C215.013 144.28 215.569 144.416 216.057 144.688C216.545 144.96 216.925 145.344 217.197 145.84C217.469 146.328 217.605 146.892 217.605 147.532ZM216.177 147.1C216.169 146.596 215.989 146.192 215.637 145.888C215.285 145.584 214.849 145.432 214.329 145.432C213.857 145.432 213.453 145.584 213.117 145.888C212.781 146.184 212.581 146.588 212.517 147.1H216.177ZM220.547 145.504V149.164C220.547 149.412 220.603 149.592 220.715 149.704C220.835 149.808 221.035 149.86 221.315 149.86H222.155V151H221.075C220.459 151 219.987 150.856 219.659 150.568C219.331 150.28 219.167 149.812 219.167 149.164V145.504H218.387V144.388H219.167V142.744H220.547V144.388H222.155V145.504H220.547ZM229.404 144.388V151H228.036V150.22C227.82 150.492 227.536 150.708 227.184 150.868C226.84 151.02 226.472 151.096 226.08 151.096C225.56 151.096 225.092 150.988 224.676 150.772C224.268 150.556 223.944 150.236 223.704 149.812C223.472 149.388 223.356 148.876 223.356 148.276V144.388H224.712V148.072C224.712 148.664 224.86 149.12 225.156 149.44C225.452 149.752 225.856 149.908 226.368 149.908C226.88 149.908 227.284 149.752 227.58 149.44C227.884 149.12 228.036 148.664 228.036 148.072V144.388H229.404ZM232.577 145.348C232.777 145.012 233.041 144.752 233.369 144.568C233.705 144.376 234.101 144.28 234.557 144.28V145.696H234.209C233.673 145.696 233.265 145.832 232.985 146.104C232.713 146.376 232.577 146.848 232.577 147.52V151H231.209V144.388H232.577V145.348ZM239.15 144.28C239.67 144.28 240.134 144.388 240.542 144.604C240.958 144.82 241.282 145.14 241.514 145.564C241.746 145.988 241.862 146.5 241.862 147.1V151H240.506V147.304C240.506 146.712 240.358 146.26 240.062 145.948C239.766 145.628 239.362 145.468 238.85 145.468C238.338 145.468 237.93 145.628 237.626 145.948C237.33 146.26 237.182 146.712 237.182 147.304V151H235.814V144.388H237.182V145.144C237.406 144.872 237.69 144.66 238.034 144.508C238.386 144.356 238.758 144.28 239.15 144.28ZM246.007 151.108C245.487 151.108 245.019 151.016 244.603 150.832C244.195 150.64 243.871 150.384 243.631 150.064C243.391 149.736 243.263 149.372 243.247 148.972H244.663C244.687 149.252 244.819 149.488 245.059 149.68C245.307 149.864 245.615 149.956 245.983 149.956C246.367 149.956 246.663 149.884 246.871 149.74C247.087 149.588 247.195 149.396 247.195 149.164C247.195 148.916 247.075 148.732 246.835 148.612C246.603 148.492 246.231 148.36 245.719 148.216C245.223 148.08 244.819 147.948 244.507 147.82C244.195 147.692 243.923 147.496 243.691 147.232C243.467 146.968 243.355 146.62 243.355 146.188C243.355 145.836 243.459 145.516 243.667 145.228C243.875 144.932 244.171 144.7 244.555 144.532C244.947 144.364 245.395 144.28 245.899 144.28C246.651 144.28 247.255 144.472 247.711 144.856C248.175 145.232 248.423 145.748 248.455 146.404H247.087C247.063 146.108 246.943 145.872 246.727 145.696C246.511 145.52 246.219 145.432 245.851 145.432C245.491 145.432 245.215 145.5 245.023 145.636C244.831 145.772 244.735 145.952 244.735 146.176C244.735 146.352 244.799 146.5 244.927 146.62C245.055 146.74 245.211 146.836 245.395 146.908C245.579 146.972 245.851 147.056 246.211 147.16C246.691 147.288 247.083 147.42 247.387 147.556C247.699 147.684 247.967 147.876 248.191 148.132C248.415 148.388 248.531 148.728 248.539 149.152C248.539 149.528 248.435 149.864 248.227 150.16C248.019 150.456 247.723 150.688 247.339 150.856C246.963 151.024 246.519 151.108 246.007 151.108ZM250.569 151.084C250.321 151.084 250.113 151 249.945 150.832C249.777 150.664 249.693 150.456 249.693 150.208C249.693 149.96 249.777 149.752 249.945 149.584C250.113 149.416 250.321 149.332 250.569 149.332C250.809 149.332 251.013 149.416 251.181 149.584C251.349 149.752 251.433 149.96 251.433 150.208C251.433 150.456 251.349 150.664 251.181 150.832C251.013 151 250.809 151.084 250.569 151.084ZM258.753 142.66C259.641 142.66 260.417 142.832 261.081 143.176C261.753 143.512 262.269 144 262.629 144.64C262.997 145.272 263.181 146.012 263.181 146.86C263.181 147.708 262.997 148.444 262.629 149.068C262.269 149.692 261.753 150.172 261.081 150.508C260.417 150.836 259.641 151 258.753 151H256.029V142.66H258.753ZM258.753 149.884C259.729 149.884 260.477 149.62 260.997 149.092C261.517 148.564 261.777 147.82 261.777 146.86C261.777 145.892 261.517 145.136 260.997 144.592C260.477 144.048 259.729 143.776 258.753 143.776H257.397V149.884H258.753ZM270.597 147.532C270.597 147.78 270.581 148.004 270.549 148.204H265.497C265.537 148.732 265.733 149.156 266.085 149.476C266.437 149.796 266.869 149.956 267.381 149.956C268.117 149.956 268.637 149.648 268.941 149.032H270.417C270.217 149.64 269.853 150.14 269.325 150.532C268.805 150.916 268.157 151.108 267.381 151.108C266.749 151.108 266.181 150.968 265.677 150.688C265.181 150.4 264.789 150 264.501 149.488C264.221 148.968 264.081 148.368 264.081 147.688C264.081 147.008 264.217 146.412 264.489 145.9C264.769 145.38 265.157 144.98 265.653 144.7C266.157 144.42 266.733 144.28 267.381 144.28C268.005 144.28 268.561 144.416 269.049 144.688C269.537 144.96 269.917 145.344 270.189 145.84C270.461 146.328 270.597 146.892 270.597 147.532ZM269.169 147.1C269.161 146.596 268.981 146.192 268.629 145.888C268.277 145.584 267.841 145.432 267.321 145.432C266.849 145.432 266.445 145.584 266.109 145.888C265.773 146.184 265.573 146.588 265.509 147.1H269.169ZM273.539 145.504V149.164C273.539 149.412 273.595 149.592 273.707 149.704C273.827 149.808 274.027 149.86 274.307 149.86H275.147V151H274.067C273.451 151 272.979 150.856 272.651 150.568C272.323 150.28 272.159 149.812 272.159 149.164V145.504H271.379V144.388H272.159V142.744H273.539V144.388H275.147V145.504H273.539ZM275.952 147.664C275.952 147 276.088 146.412 276.36 145.9C276.64 145.388 277.016 144.992 277.488 144.712C277.968 144.424 278.496 144.28 279.072 144.28C279.592 144.28 280.044 144.384 280.428 144.592C280.82 144.792 281.132 145.044 281.364 145.348V144.388H282.744V151H281.364V150.016C281.132 150.328 280.816 150.588 280.416 150.796C280.016 151.004 279.56 151.108 279.048 151.108C278.48 151.108 277.96 150.964 277.488 150.676C277.016 150.38 276.64 149.972 276.36 149.452C276.088 148.924 275.952 148.328 275.952 147.664ZM281.364 147.688C281.364 147.232 281.268 146.836 281.076 146.5C280.892 146.164 280.648 145.908 280.344 145.732C280.04 145.556 279.712 145.468 279.36 145.468C279.008 145.468 278.68 145.556 278.376 145.732C278.072 145.9 277.824 146.152 277.632 146.488C277.448 146.816 277.356 147.208 277.356 147.664C277.356 148.12 277.448 148.52 277.632 148.864C277.824 149.208 278.072 149.472 278.376 149.656C278.688 149.832 279.016 149.92 279.36 149.92C279.712 149.92 280.04 149.832 280.344 149.656C280.648 149.48 280.892 149.224 281.076 148.888C281.268 148.544 281.364 148.144 281.364 147.688ZM285.237 143.512C284.989 143.512 284.781 143.428 284.613 143.26C284.445 143.092 284.361 142.884 284.361 142.636C284.361 142.388 284.445 142.18 284.613 142.012C284.781 141.844 284.989 141.76 285.237 141.76C285.477 141.76 285.681 141.844 285.849 142.012C286.017 142.18 286.101 142.388 286.101 142.636C286.101 142.884 286.017 143.092 285.849 143.26C285.681 143.428 285.477 143.512 285.237 143.512ZM285.909 144.388V151H284.541V144.388H285.909ZM289.073 142.12V151H287.705V142.12H289.073ZM293.269 151.108C292.749 151.108 292.281 151.016 291.865 150.832C291.457 150.64 291.133 150.384 290.893 150.064C290.653 149.736 290.525 149.372 290.509 148.972H291.925C291.949 149.252 292.081 149.488 292.321 149.68C292.569 149.864 292.877 149.956 293.245 149.956C293.629 149.956 293.925 149.884 294.133 149.74C294.349 149.588 294.457 149.396 294.457 149.164C294.457 148.916 294.337 148.732 294.097 148.612C293.865 148.492 293.493 148.36 292.981 148.216C292.485 148.08 292.081 147.948 291.769 147.82C291.457 147.692 291.185 147.496 290.953 147.232C290.729 146.968 290.617 146.62 290.617 146.188C290.617 145.836 290.721 145.516 290.929 145.228C291.137 144.932 291.433 144.7 291.817 144.532C292.209 144.364 292.657 144.28 293.161 144.28C293.913 144.28 294.517 144.472 294.973 144.856C295.437 145.232 295.685 145.748 295.717 146.404H294.349C294.325 146.108 294.205 145.872 293.989 145.696C293.773 145.52 293.481 145.432 293.113 145.432C292.753 145.432 292.477 145.5 292.285 145.636C292.093 145.772 291.997 145.952 291.997 146.176C291.997 146.352 292.061 146.5 292.189 146.62C292.317 146.74 292.473 146.836 292.657 146.908C292.841 146.972 293.113 147.056 293.473 147.16C293.953 147.288 294.345 147.42 294.649 147.556C294.961 147.684 295.229 147.876 295.453 148.132C295.677 148.388 295.793 148.728 295.801 149.152C295.801 149.528 295.697 149.864 295.489 150.16C295.281 150.456 294.985 150.688 294.601 150.856C294.225 151.024 293.781 151.108 293.269 151.108Z" fill="black"/>
<path d="M255.129 152.2H296.377V152.8H255.129V152.2Z" fill="black"/>
<defs>
<clipPath id="clip0_261_4869">
<rect width="40" height="40" fill="white" transform="translate(16 29)"/>
</clipPath>
<clipPath id="clip1_261_4869">
<rect width="40" height="40" fill="white" transform="translate(16 111)"/>
</clipPath>
</defs>
</svg>
